<?xml version="1.0" encoding="UTF-8"?>
<svg width="105px" height="16px" viewBox="0 0 105 16" version="1.1" xmlns="http://www.w3.org/2000/svg" xmlns:xlink="http://www.w3.org/1999/xlink">
      <g id="logoVector" transform="translate(-27.000000, -17.000000)" fill-rule="nonzero" fill="#FFFFFF">
          <path d="M103.550965,27.0499047 L108.760083,18.5281381 C109.275238,17.6853778 110.376047,17.4198019 111.218807,17.9349577 C112.061567,18.4501135 112.327143,19.550922 111.811988,20.3936822 L105.091446,31.3880376 C104.57629,32.2307979 103.475481,32.4963738 102.632721,31.9812181 C102.594534,31.9578751 102.557531,31.9333297 102.521733,31.9076603 C102.294893,31.7638527 102.097112,31.5665611 101.949023,31.3208982 L95.3214543,20.3265428 C94.8115161,19.4806152 95.0838892,18.3814689 95.9298167,17.8715306 C96.7757442,17.3615924 97.8748906,17.6339655 98.3848289,18.479893 L103.550965,27.0499047 Z M57.1673783,18.923688 L63.6966029,29.6050612 C64.2117587,30.4478215 63.9461827,31.54863 63.1034225,32.0637857 C62.2606622,32.5789415 61.1598537,32.3133656 60.6446979,31.4706053 L55.4686147,23.0028806 L50.3848289,31.4362828 C49.8748906,32.2822103 48.7757442,32.5545834 47.9298167,32.0446451 C47.0838892,31.5347069 46.8115161,30.4355605 47.3214543,29.589633 L53.8164997,18.8151176 C53.9290277,18.5621281 54.1010856,18.3331475 54.3270932,18.1513047 C54.8964634,17.6708229 55.7305104,17.5809043 56.4040348,17.9869152 C56.7740267,18.2099522 57.0342969,18.5457055 57.1673783,18.923688 L57.1673783,18.923688 Z M31.0839108,23.7786383 L31.0839108,30.307064 C31.0839108,31.2948041 30.2831893,32.0955256 29.2954493,32.0955256 C28.3077093,32.0955256 27.5069878,31.2948041 27.5069878,30.307064 L27.5069878,19.8015417 C27.5069878,19.7914627 27.5070711,19.7814032 27.5072372,19.7713639 C27.3974531,19.2072284 27.5610404,18.6004186 27.9979991,18.16346 C28.6964368,17.4650223 29.828828,17.4650223 30.5272656,18.16346 L38.237757,25.8739513 L38.237757,19.3455256 C38.237757,18.3577855 39.0384785,17.557064 40.0262185,17.557064 C41.0139586,17.557064 41.8146801,18.3577855 41.8146801,19.3455256 L41.8146801,29.8480612 C41.8146801,29.9061508 41.8119106,29.9635936 41.8064965,30.0202647 C41.8556011,30.5332741 41.6837195,31.063445 41.2908518,31.4563127 C40.5924141,32.1547504 39.4600229,32.1547504 38.7615852,31.4563127 L31.0839108,23.7786383 L31.0839108,23.7786383 Z M121.776219,28.9230769 L129.795449,28.9230769 C130.783189,28.9230769 131.583911,29.7237984 131.583911,30.7115385 C131.583911,31.6992785 130.783189,32.5 129.795449,32.5 L120.022879,32.5 C119.035139,32.5 118.234418,31.6992785 118.234418,30.7115385 C118.234418,30.6371156 118.238964,30.5637544 118.247793,30.4917175 C118.216082,30.3584059 118.199295,30.2193107 118.199295,30.0762948 L118.199295,19.3400032 C118.199295,18.5272321 118.741462,17.8410907 119.483867,17.6235075 C119.686541,17.5437849 119.907289,17.5 120.138264,17.5 L129.910834,17.5 C130.898574,17.5 131.699295,18.3007215 131.699295,19.2884615 C131.699295,20.2762016 130.898574,21.0769231 129.910834,21.0769231 L121.776219,21.0769231 L121.776219,23.2692308 L124.256988,23.2692308 C125.244728,23.2692308 126.045449,24.0699523 126.045449,25.0576923 C126.045449,26.0454323 125.244728,26.7307692 124.256988,26.7307692 L121.776219,26.7307692 L121.776219,28.9230769 Z M74.5839108,21.1923077 L74.5839108,30.6532179 C74.5839108,31.6409579 73.7831893,32.4416794 72.7954493,32.4416794 C71.8077093,32.4416794 71.0069878,31.6409579 71.0069878,30.6532179 L71.0069878,21.1923077 L67.8690332,21.1923077 C66.8812931,21.1923077 66.0805716,20.3915862 66.0805716,19.4038462 C66.0805716,18.4161061 66.8812931,17.6153846 67.8690332,17.6153846 L77.6416031,17.6153846 C78.6293432,17.6153846 79.4300647,18.4161061 79.4300647,19.4038462 C79.4300647,20.3915862 78.6293432,21.1923077 77.6416031,21.1923077 L74.5839108,21.1923077 Z M89.237757,30.5378333 L89.237757,19.3400032 C89.237757,18.3522632 88.4370355,17.5515417 87.4492954,17.5515417 C86.4615554,17.5515417 85.6608339,18.3522632 85.6608339,19.3400032 L85.6608339,30.5378333 C85.6608339,31.5255733 86.4615554,32.3262948 87.4492954,32.3262948 C88.4370355,32.3262948 89.237757,31.5255733 89.237757,30.5378333 Z" id="Combined-Shape"></path>
        </g>
</svg>
